# Blender v2.78 (sub 0) OBJ File: 'fish2.blend'
# www.blender.org
mtllib fish2.mtl
o Fish_Cube
v -0.036238 0.026104 0.031652
v -0.000035 -0.044910 0.045098
v 0.007686 0.023718 -0.283886
v 0.010355 0.014714 -0.283801
v -0.000043 0.080083 0.045095
v 0.036928 0.026104 0.033959
v 0.010355 0.032723 -0.283802
v 0.013024 0.023718 -0.283717
v -0.001746 0.032485 0.154246
v 0.003267 0.023035 -0.328888
v 0.012791 0.060130 -0.360804
v 0.020278 0.023035 -0.328350
v 0.012314 -0.026583 -0.345734
vn -0.8858 -0.4497 -0.1146
vn 0.8913 -0.4495 -0.0584
vn 0.9407 0.3079 0.1426
vn -0.8347 0.5391 -0.1120
vn -0.8780 -0.3969 0.2677
vn 0.8402 0.5391 -0.0590
vn 0.8648 -0.4031 0.2994
vn 0.8236 0.5151 0.2375
vn -0.8355 0.5083 0.2086
vn 0.0239 -0.6555 -0.7548
vn -0.9478 0.3079 0.0828
vn -0.9680 -0.2251 0.1106
vn 0.9591 -0.2251 0.1716
vn 0.0299 0.3262 -0.9448
usemtl Material
s off
f 2//1 1//1 3//1 4//1
f 6//2 2//2 4//2 8//2
f 7//3 8//3 12//3 11//3
f 1//4 5//4 7//4 3//4
f 1//5 2//5 9//5
f 8//6 7//6 5//6 6//6
f 2//7 6//7 9//7
f 6//8 5//8 9//8
f 5//9 1//9 9//9
f 11//10 12//10 10//10
f 3//11 7//11 11//11 10//11
f 4//12 3//12 10//12 13//12
f 8//13 4//13 13//13 12//13
f 12//14 13//14 10//14
